<svg width="100" height="100" viewBox="0 0 100 100" fill="none" xmlns="http://www.w3.org/2000/svg">
<path fill-rule="evenodd" clip-rule="evenodd" d="M61.7332 20.5865C61.7332 12.5047 55.1667 5.95312 47.0666 5.95312C38.9664 5.95312 32.3999 12.5047 32.3999 20.5865C32.3999 23.0047 32.9878 25.2859 34.0287 27.2955C17.6241 32.2567 6 44.6355 6 59.1211C6 77.9786 25.6995 93.2656 50 93.2656C74.3005 93.2656 94 77.9786 94 59.1211C94 43.1273 79.8294 29.7019 60.6997 25.9931C61.3666 24.3205 61.7332 22.4962 61.7332 20.5865ZM60.6997 25.9931C57.2745 25.3291 53.6903 24.9765 50 24.9765C44.3662 24.9765 38.9798 25.7982 34.0287 27.2955C36.4668 32.0024 41.3901 35.2199 47.0666 35.2199C53.2527 35.2199 58.5443 31.3988 60.6997 25.9931ZM56.8445 56.6822C58.1945 56.6822 59.2889 55.5902 59.2889 54.2433C59.2889 52.8963 58.1945 51.8044 56.8445 51.8044C55.4944 51.8044 54.4 52.8963 54.4 54.2433C54.4 55.5902 55.4944 56.6822 56.8445 56.6822ZM88.6221 54.2433C88.6221 55.5902 87.5276 56.6822 86.1776 56.6822C84.8276 56.6822 83.7332 55.5902 83.7332 54.2433C83.7332 52.8963 84.8276 51.8044 86.1776 51.8044C87.5276 51.8044 88.6221 52.8963 88.6221 54.2433ZM71.5109 66.4378C76.9111 66.4378 81.2887 63.162 81.2887 59.1211C81.2887 55.0802 76.9111 51.8044 71.5109 51.8044C66.1108 51.8044 61.7332 55.0802 61.7332 59.1211C61.7332 63.162 66.1108 66.4378 71.5109 66.4378ZM68.089 59.1211C68.089 59.9293 67.4323 60.5845 66.6223 60.5845C65.8123 60.5845 65.1556 59.9293 65.1556 59.1211C65.1556 58.3129 65.8123 57.6578 66.6223 57.6578C67.4323 57.6578 68.089 58.3129 68.089 59.1211ZM76.3998 60.5845C77.2099 60.5845 77.8665 59.9293 77.8665 59.1211C77.8665 58.3129 77.2099 57.6578 76.3998 57.6578C75.5898 57.6578 74.9332 58.3129 74.9332 59.1211C74.9332 59.9293 75.5898 60.5845 76.3998 60.5845Z" fill="black" style="mix-blend-mode:multiply"/>
</svg>
