<svg width="100" height="100" viewBox="0 0 100 100" fill="none" xmlns="http://www.w3.org/2000/svg">
<path fill-rule="evenodd" clip-rule="evenodd" d="M75.5453 66.0658C88.6451 66.0658 99.2647 55.4464 99.2647 42.3466C99.2647 29.2469 88.6451 18.6275 75.5453 18.6275C65.2235 18.6275 56.4417 25.2205 53.1813 34.4249L0 65.1291L2.451 69.3743L51.8732 40.8404C51.842 41.3384 51.8262 41.8407 51.8262 42.3466C51.8262 45.8722 52.5954 49.218 53.9751 52.2257L20.2312 71.7076L22.6822 75.9529L56.4695 56.4458C58.8044 59.5995 61.9026 62.1538 65.4914 63.8358L43.2012 76.705L45.6522 80.9502L71.9118 65.7892C73.0964 65.9713 74.3098 66.0658 75.5453 66.0658ZM71.9118 65.7892L76.4643 63.1608L74.0133 58.9156L65.4914 63.8358C67.4945 64.7746 69.6505 65.4416 71.9118 65.7892ZM56.4695 56.4458L68.5579 49.4665L66.107 45.2213L53.9751 52.2257C54.6618 53.7226 55.4998 55.1359 56.4695 56.4458ZM51.8732 40.8404L60.6516 35.7722L58.2006 31.527L53.1813 34.4249C52.4635 36.4511 52.0133 38.6037 51.8732 40.8404Z" fill="black" style="mix-blend-mode:multiply"/>
</svg>
