<svg width="100" height="100" viewBox="0 0 100 100" fill="none" xmlns="http://www.w3.org/2000/svg">
<path fill-rule="evenodd" clip-rule="evenodd" d="M62.706 62.4582C69.3551 58.1539 73.7549 50.6714 73.7549 42.1612C73.7549 28.8173 62.9376 18 49.5938 18C36.2499 18 25.4326 28.8173 25.4326 42.1612C25.4326 50.6714 29.8325 58.1539 36.4815 62.4582C35.0585 63.3776 33.7257 64.4509 32.5093 65.6674C27.9782 70.1985 25.4326 76.344 25.4326 82.7519H49.5938H73.7549C73.7549 76.344 71.2094 70.1985 66.6783 65.6674C65.4618 64.4509 64.129 63.3776 62.706 62.4582ZM62.706 62.4582C58.8286 59.953 54.2814 58.5907 49.5938 58.5907C44.9062 58.5907 40.359 59.953 36.4815 62.4582C40.258 64.9029 44.7601 66.3223 49.5938 66.3223C54.4274 66.3223 58.9295 64.9029 62.706 62.4582Z" fill="black" style="mix-blend-mode:multiply"/>
</svg>
