<svg width="100" height="101" viewBox="0 0 100 101" fill="none" xmlns="http://www.w3.org/2000/svg">
<path fill-rule="evenodd" clip-rule="evenodd" d="M69.9962 69.1755C80.3419 62.4782 87.188 50.8356 87.188 37.594C87.188 16.8314 70.3566 0 49.594 0C28.8314 0 12 16.8314 12 37.594C12 50.8356 18.846 62.4782 29.1917 69.1755C26.9776 70.6061 24.9038 72.2762 23.011 74.1689C15.9608 81.2192 12 90.7813 12 100.752L49.594 100.752H87.188C87.188 90.7813 83.2272 81.2192 76.1769 74.1689C74.2842 72.2762 72.2104 70.6061 69.9962 69.1755ZM69.9962 69.1755C63.963 65.2775 56.8878 63.1579 49.594 63.1579C42.3002 63.1579 35.225 65.2775 29.1917 69.1755C35.0679 72.9794 42.073 75.188 49.594 75.188C57.115 75.188 64.1201 72.9794 69.9962 69.1755Z" fill="black" style="mix-blend-mode:multiply"/>
</svg>
