<svg width="102" height="100" viewBox="0 0 102 100" fill="none" xmlns="http://www.w3.org/2000/svg">
<path fill-rule="evenodd" clip-rule="evenodd" d="M77.8062 67.3871C91.168 67.3871 102 56.5553 102 43.1935C102 29.8318 91.168 19 77.8062 19C67.278 19 58.3205 25.7249 54.9949 35.1134L0.75 66.4317L3.25 70.7618L53.6607 41.6572C53.6288 42.1652 53.6127 42.6775 53.6127 43.1935C53.6127 46.7896 54.3973 50.2024 55.8046 53.2702L21.3858 73.1418L23.8858 77.472L58.3489 57.5747C60.7305 60.7915 63.8907 63.3969 67.5512 65.1125L44.8152 78.2391L47.3152 82.5692L74.1 67.105C75.3083 67.2907 76.546 67.3871 77.8062 67.3871ZM74.1 67.105L78.7436 64.424L76.2436 60.0939L67.5512 65.1125C69.5944 66.0701 71.7935 66.7504 74.1 67.105ZM58.3489 57.5747L70.6791 50.4558L68.1791 46.1257L55.8046 53.2702C56.505 54.7971 57.3598 56.2386 58.3489 57.5747ZM53.6607 41.6572L62.6146 36.4876L60.1146 32.1575L54.9949 35.1134C54.2628 37.1801 53.8036 39.3758 53.6607 41.6572Z" fill="black" style="mix-blend-mode:multiply"/>
</svg>
