<svg width="100" height="100" viewBox="0 0 100 100" fill="none" xmlns="http://www.w3.org/2000/svg">
<path fill-rule="evenodd" clip-rule="evenodd" d="M60.6667 23.2249C60.6667 15.8779 54.6971 9.92187 47.3333 9.92188C39.9695 9.92188 34 15.8779 34 23.2249C34 25.4233 34.5344 27.497 35.4807 29.324C20.5674 33.8341 10 45.0876 10 58.2564C10 75.3995 27.9086 89.2969 50 89.2969C72.0914 89.2969 90 75.3995 90 58.2564C90 43.7166 77.1176 31.5117 59.727 28.1401C60.3333 26.6195 60.6667 24.9611 60.6667 23.2249ZM59.727 28.1401C56.6132 27.5364 53.3548 27.2159 50 27.2159C44.8784 27.2159 39.9816 27.9628 35.4807 29.324C37.6971 33.603 42.1728 36.528 47.3333 36.528C52.9571 36.528 57.7676 33.0543 59.727 28.1401ZM56.2222 56.0392C57.4495 56.0392 58.4444 55.0465 58.4444 53.822C58.4444 52.5975 57.4495 51.6048 56.2222 51.6048C54.9949 51.6048 54 52.5975 54 53.822C54 55.0465 54.9949 56.0392 56.2222 56.0392ZM85.1108 53.822C85.1108 55.0465 84.1159 56.0392 82.8886 56.0392C81.6613 56.0392 80.6664 55.0465 80.6664 53.822C80.6664 52.5975 81.6613 51.6048 82.8886 51.6048C84.1159 51.6048 85.1108 52.5975 85.1108 53.822ZM69.5553 64.9079C74.4645 64.9079 78.4442 61.9299 78.4442 58.2564C78.4442 54.5828 74.4645 51.6048 69.5553 51.6048C64.6461 51.6048 60.6664 54.5828 60.6664 58.2564C60.6664 61.9299 64.6461 64.9079 69.5553 64.9079ZM66.4444 58.2564C66.4444 58.9911 65.8474 59.5867 65.1111 59.5867C64.3747 59.5867 63.7777 58.9911 63.7777 58.2564C63.7777 57.5217 64.3747 56.9261 65.1111 56.9261C65.8474 56.9261 66.4444 57.5217 66.4444 58.2564ZM73.9997 59.5867C74.7361 59.5867 75.3331 58.9911 75.3331 58.2564C75.3331 57.5217 74.7361 56.9261 73.9997 56.9261C73.2634 56.9261 72.6664 57.5217 72.6664 58.2564C72.6664 58.9911 73.2634 59.5867 73.9997 59.5867Z" fill="black" style="mix-blend-mode:multiply"/>
</svg>
