<svg width="100" height="100" viewBox="0 0 100 100" fill="none" xmlns="http://www.w3.org/2000/svg">
<path fill-rule="evenodd" clip-rule="evenodd" d="M63.3333 16.6288C63.3333 7.44499 55.8714 -4.01439e-07 46.6667 0C37.4619 4.01439e-07 30 7.44499 30 16.6288C30 19.3767 30.668 21.969 31.8509 24.2527C13.2093 29.8903 0 43.9571 0 60.4181C0 81.8471 22.3858 99.2187 50 99.2187C77.6142 99.2187 100 81.8471 100 60.4181C100 42.2434 83.8971 26.9872 62.1588 22.7727C62.9167 20.8721 63.3333 18.799 63.3333 16.6288ZM62.1588 22.7727C58.2665 22.0181 54.1936 21.6175 50 21.6175C43.598 21.6175 37.4771 22.5512 31.8509 24.2527C34.6214 29.6014 40.2161 33.2577 46.6667 33.2577C53.6963 33.2577 59.7095 28.9155 62.1588 22.7727ZM57.7778 57.6466C59.3119 57.6466 60.5556 56.4058 60.5556 54.8752C60.5556 53.3445 59.3119 52.1037 57.7778 52.1037C56.2437 52.1037 55 53.3445 55 54.8752C55 56.4058 56.2437 57.6466 57.7778 57.6466ZM93.8888 54.8752C93.8888 56.4058 92.6452 57.6466 91.111 57.6466C89.5769 57.6466 88.3333 56.4058 88.3333 54.8752C88.3333 53.3445 89.5769 52.1037 91.111 52.1037C92.6452 52.1037 93.8888 53.3445 93.8888 54.8752ZM74.4444 68.7325C80.5809 68.7325 85.5555 65.01 85.5555 60.4181C85.5555 55.8262 80.5809 52.1037 74.4444 52.1037C68.3079 52.1037 63.3333 55.8262 63.3333 60.4181C63.3333 65.01 68.3079 68.7325 74.4444 68.7325ZM70.5555 60.4181C70.5555 61.3365 69.8093 62.081 68.8888 62.081C67.9684 62.081 67.2222 61.3365 67.2222 60.4181C67.2222 59.4997 67.9684 58.7552 68.8888 58.7552C69.8093 58.7552 70.5555 59.4997 70.5555 60.4181ZM79.9999 62.081C80.9204 62.081 81.6666 61.3365 81.6666 60.4181C81.6666 59.4997 80.9204 58.7552 79.9999 58.7552C79.0794 58.7552 78.3333 59.4997 78.3333 60.4181C78.3333 61.3365 79.0794 62.081 79.9999 62.081Z" fill="black" style="mix-blend-mode:multiply"/>
</svg>
