<svg width="100" height="100" viewBox="0 0 100 100" fill="none" xmlns="http://www.w3.org/2000/svg">
<path fill-rule="evenodd" clip-rule="evenodd" d="M61.8385 18.6075C68.8747 21.4262 74.76 26.5269 78.5499 33.0912L49.263 50L80 64.102C76.8393 70.9913 71.4557 76.6189 64.7132 80.0819C57.9708 83.5449 50.2604 84.6423 42.8195 83.1981C35.3786 81.7539 28.6386 77.8518 23.6812 72.118C18.7237 66.3842 15.8363 59.1512 15.4822 51.5797C15.1282 44.0082 17.328 36.5373 21.7288 30.3659C26.1295 24.1944 32.4759 19.6804 39.7496 17.5481C47.0232 15.4158 54.8023 15.7889 61.8385 18.6075ZM52.6447 32.4149C52.6447 34.2826 51.1306 35.7966 49.2629 35.7966C47.3952 35.7966 45.8812 34.2826 45.8812 32.4149C45.8812 30.5472 47.3952 29.0331 49.2629 29.0331C51.1306 29.0331 52.6447 30.5472 52.6447 32.4149Z" fill="black" style="mix-blend-mode:multiply"/>
</svg>
