<svg width="100" height="100" viewBox="0 0 100 100" fill="none" xmlns="http://www.w3.org/2000/svg">
<path fill-rule="evenodd" clip-rule="evenodd" d="M68.5932 3.58565C78.9964 7.75307 87.6979 15.2946 93.3013 25L50 50L95.4453 70.85C90.7721 81.0359 82.8124 89.3566 72.8435 94.4767C62.8747 99.5967 51.4748 101.219 40.4733 99.084C29.4718 96.9487 19.5066 91.1794 12.1769 82.7019C4.8472 74.2243 0.578066 63.5302 0.0545789 52.3356C-0.468909 41.141 2.78361 30.0951 9.29016 20.9705C15.7967 11.846 25.18 5.17186 35.9343 2.01922C46.6885 -1.13342 58.1901 -0.581768 68.5932 3.58565ZM55 24C55 26.7614 52.7614 29 50 29C47.2386 29 45 26.7614 45 24C45 21.2386 47.2386 19 50 19C52.7614 19 55 21.2386 55 24Z" fill="black" style="mix-blend-mode:multiply"/>
</svg>
