<svg width="100" height="100" viewBox="0 0 100 100" fill="none" xmlns="http://www.w3.org/2000/svg">
<path fill-rule="evenodd" clip-rule="evenodd" d="M64.0252 13.7446C72.1513 16.9999 78.9482 22.8908 83.3252 30.4719L49.5015 50L85 66.2864C81.3496 74.2429 75.1321 80.7424 67.3452 84.7418C59.5583 88.7412 50.6535 90.0086 42.06 88.3407C33.4664 86.6728 25.6824 82.1662 19.957 75.5442C14.2316 68.9222 10.8969 60.5687 10.488 51.8244C10.0791 43.08 12.6197 34.4518 17.7021 27.3244C22.7845 20.197 30.1141 14.9837 38.5145 12.5211C46.9148 10.0585 55.899 10.4894 64.0252 13.7446ZM53.4074 29.6908C53.4074 31.8478 51.6588 33.5964 49.5017 33.5964C47.3447 33.5964 45.5961 31.8478 45.5961 29.6908C45.5961 27.5338 47.3447 25.7852 49.5017 25.7852C51.6588 25.7852 53.4074 27.5338 53.4074 29.6908Z" fill="black" style="mix-blend-mode:multiply"/>
</svg>
