<svg width="100" height="100" viewBox="0 0 100 100" fill="none" xmlns="http://www.w3.org/2000/svg">
<path d="M57.7435 74.6732L69.0285 93.5L97.5 44.309L75.5122 43.9736C75.4256 49.9807 73.8448 56.05 70.6195 61.6223C67.3943 67.1947 62.9155 71.5949 57.7435 74.6732Z" fill="#414DA1"/>
<path d="M75.5122 43.9736L39.0081 43.4169L57.7435 74.6732C62.9155 71.5949 67.3943 67.1947 70.6195 61.6223C73.8448 56.05 75.4256 49.9807 75.5122 43.9736Z" fill="#E7A545"/>
<path d="M75.5122 43.9736C75.6962 31.2071 69.1312 18.7216 57.2589 11.8842C39.8003 1.82963 17.4761 7.79646 7.39642 25.2115C-2.6833 42.6265 3.29846 64.895 20.757 74.9496C32.6294 81.787 46.7517 81.2155 57.7435 74.6732L39.0081 43.4169L75.5122 43.9736Z" fill="#7E3972"/>
</svg>
