<svg width="100" height="100" viewBox="0 0 100 100" fill="none" xmlns="http://www.w3.org/2000/svg">
<path fill-rule="evenodd" clip-rule="evenodd" d="M87.841 46.3814C89.9266 41.3464 91 35.9499 91 30.5L8 30.5C8 35.9499 9.07343 41.3463 11.159 46.3814C13.2446 51.4164 16.3014 55.9913 20.1551 59.8449C24.0087 63.6986 28.5836 66.7554 33.6186 68.841C38.6536 70.9266 44.0501 72 49.5 72C54.9499 72 60.3463 70.9266 65.3814 68.841C70.4164 66.7554 74.9913 63.6986 78.8449 59.8449C82.6986 55.9913 85.7554 51.4164 87.841 46.3814ZM11.0942 38.4716C10.6004 39.6636 10.3463 40.9412 10.3463 42.2315H29.9965H49.6466H69.0035L88.6537 42.2315C88.6537 40.9412 88.3996 39.6636 87.9058 38.4716C87.4121 37.2795 86.6884 36.1964 85.776 35.2841C84.8637 34.3717 83.7806 33.648 82.5885 33.1543C81.3965 32.6605 80.1189 32.4064 78.8286 32.4064C77.5384 32.4064 76.2608 32.6605 75.0687 33.1543C73.8767 33.648 72.7936 34.3717 71.8812 35.2841C70.9689 36.1964 70.2452 37.2795 69.7514 38.4716C69.2577 39.6636 69.0035 40.9412 69.0035 42.2315C69.0035 40.9412 68.7532 39.6636 68.2668 38.4716C67.7804 37.2795 67.0675 36.1964 66.1688 35.2841C65.2701 34.3717 64.2031 33.648 63.0289 33.1543C61.8546 32.6605 60.5961 32.4064 59.3251 32.4064C58.0541 32.4064 56.7955 32.6605 55.6213 33.1543C54.4471 33.648 53.3801 34.3717 52.4814 35.2841C51.5827 36.1964 50.8698 37.2795 50.3834 38.4716C49.897 39.6636 49.6466 40.9412 49.6466 42.2315C49.6466 40.9412 49.3925 39.6636 48.8988 38.4716C48.405 37.2795 47.6813 36.1964 46.7689 35.2841C45.8566 34.3717 44.7735 33.648 43.5815 33.1543C42.3894 32.6605 41.1118 32.4064 39.8216 32.4064C38.5313 32.4064 37.2537 32.6605 36.0617 33.1543C34.8696 33.648 33.7865 34.3717 32.8742 35.2841C31.9618 36.1964 31.2381 37.2795 30.7444 38.4716C30.2506 39.6636 29.9965 40.9412 29.9965 42.2315C29.9965 40.9412 29.7423 39.6636 29.2486 38.4716C28.7548 37.2795 28.0311 36.1964 27.1188 35.2841C26.2064 34.3717 25.1233 33.648 23.9313 33.1543C22.7392 32.6605 21.4616 32.4064 20.1714 32.4064C18.8811 32.4064 17.6035 32.6605 16.4115 33.1543C15.2194 33.648 14.1363 34.3717 13.224 35.2841C12.3116 36.1964 11.5879 37.2795 11.0942 38.4716Z" fill="black"/>
</svg>
