<svg width="100" height="100" viewBox="0 0 100 100" fill="none" xmlns="http://www.w3.org/2000/svg">
<path d="M87 43.3759H59.0298C60.7356 56.4132 50.7607 69.2386 36.3598 69.2386C36.302 69.2386 36.2444 69.2384 36.1868 69.238V100L87 43.3759Z" fill="#007A44"/>
<path d="M36.1868 43.3759V69.238C36.2444 69.2384 36.302 69.2386 36.3598 69.2386C50.7607 69.2386 60.7356 56.4132 59.0298 43.3759H36.1868Z" fill="#E7A545"/>
<path d="M36.3598 0.5L29.3788 12.6375L38.4236 28.3633C36.633 29.401 34.6564 30.0745 32.6065 30.3454C30.5566 30.6163 28.4736 30.4793 26.4765 29.9421C24.4872 29.407 22.6219 28.4854 20.9862 27.2295L16.5921 34.8693C7.83537 50.0944 18.7166 69.1132 36.1868 69.238V43.3759H59.0298C58.6542 40.5058 57.7126 37.6254 56.1274 34.8693L36.3598 0.5Z" fill="#E94136"/>
<path d="M20.9669 27.2147L20.9862 27.2295L29.3788 12.6375L22.6793 0.989224C20.8887 2.02696 19.3193 3.40855 18.0607 5.05513C16.802 6.7017 15.8788 8.58101 15.3436 10.5858C14.8085 12.5905 14.672 14.6814 14.9419 16.7391C15.2117 18.7968 15.8827 20.781 16.9165 22.5784C17.9503 24.3758 19.3266 25.9513 20.9669 27.2147Z" fill="#E94136"/>
</svg>
