<svg width="100" height="100" viewBox="0 0 100 100" fill="none" xmlns="http://www.w3.org/2000/svg">
<path fill-rule="evenodd" clip-rule="evenodd" d="M21.9997 46.3333C25.8657 46.3333 28.9997 43.1993 28.9997 39.3333H33.6668C33.6668 43.1993 36.8008 46.3333 40.6668 46.3333C44.5327 46.3333 47.6668 43.1993 47.6668 39.3333H52.3334C52.3334 43.1993 55.4674 46.3333 59.3334 46.3333C63.1994 46.3333 66.3334 43.1993 66.3334 39.3333H71C71 43.1993 74.134 46.3333 78 46.3333C81.866 46.3333 85 43.1993 85 39.3333L92 39.3334V67.3334H8L8 39.3334H14.9997C14.9997 43.1993 18.1337 46.3333 21.9997 46.3333ZM85 39.3333H71C71 35.4674 74.134 32.3333 78 32.3333C81.866 32.3333 85 35.4674 85 39.3333ZM66.3334 39.3333H52.3334C52.3334 35.4674 55.4674 32.3333 59.3334 32.3333C63.1994 32.3333 66.3334 35.4674 66.3334 39.3333ZM47.6668 39.3333H33.6668C33.6668 35.4674 36.8008 32.3333 40.6668 32.3333C44.5327 32.3333 47.6668 35.4674 47.6668 39.3333ZM14.9997 39.3334C14.9997 35.4674 18.1337 32.3333 21.9997 32.3333C25.8657 32.3333 28.9997 35.4674 28.9997 39.3333L14.9997 39.3334Z" fill="black" style="mix-blend-mode:multiply"/>
</svg>
