<svg width="100" height="100" viewBox="0 0 100 100" fill="none" xmlns="http://www.w3.org/2000/svg">
<path fill-rule="evenodd" clip-rule="evenodd" d="M16.6666 45.6667C21.269 45.6667 24.9999 41.9357 24.9999 37.3333H30.5557C30.5557 41.9357 34.2866 45.6667 38.889 45.6667C43.4914 45.6667 47.2223 41.9357 47.2223 37.3333H52.7778C52.7778 41.9357 56.5088 45.6667 61.1112 45.6667C65.7135 45.6667 69.4445 41.9357 69.4445 37.3333H75C75 41.9357 78.731 45.6667 83.3333 45.6667C87.9357 45.6667 91.6667 41.9357 91.6667 37.3333L100 37.3333V70.6667L0 70.6667L0 37.3333L8.33325 37.3333C8.33325 41.9357 12.0642 45.6667 16.6666 45.6667ZM91.6667 37.3333H75C75 32.731 78.731 29 83.3333 29C87.9357 29 91.6667 32.731 91.6667 37.3333ZM69.4445 37.3333H52.7778C52.7778 32.731 56.5088 29 61.1112 29C65.7135 29 69.4445 32.731 69.4445 37.3333ZM47.2223 37.3333L30.5557 37.3333C30.5557 32.731 34.2866 29 38.889 29C43.4914 29 47.2223 32.731 47.2223 37.3333ZM24.9999 37.3333H8.33325C8.33325 32.731 12.0642 29 16.6666 29C21.269 29 24.9999 32.731 24.9999 37.3333Z" fill="black" style="mix-blend-mode:multiply"/>
</svg>
