<svg width="100" height="100" viewBox="0 0 100 100" fill="none" xmlns="http://www.w3.org/2000/svg">
<path d="M73.25 38.75L61.875 27.5L50.5 38.75L61.875 50L73.25 38.75Z" fill="#E7A545"/>
<path d="M39.125 72.5L50.5 61.25L39.125 50L27.75 61.25L39.125 72.5Z" fill="#E7A545"/>
<path fill-rule="evenodd" clip-rule="evenodd" d="M96 16.25L84.625 5L61.875 27.5L73.25 38.75L96 16.25ZM27.75 61.25L39.125 72.5L16.375 95L5 83.75L27.75 61.25Z" fill="#007A44"/>
<path d="M16.4888 50.1125L27.75 61.25L39.125 50L50.5 61.25L39.125 72.5L50.6138 83.8625L84.7388 50.1125L73.25 38.75L61.875 50L50.5 38.75L61.875 27.5L50.6138 16.3625L16.4888 50.1125Z" fill="#414DA1"/>
</svg>
