<svg width="100" height="100" viewBox="0 0 100 100" fill="none" xmlns="http://www.w3.org/2000/svg">
<path fill-rule="evenodd" clip-rule="evenodd" d="M75.5758 22.1162C82.2504 28.7908 86.0002 37.8436 86.0002 47.2829H56.1609V38.8089H44.6573V47.2829L14.8179 47.2829C14.8179 37.8436 18.5676 28.7908 25.2423 22.1162C31.9169 15.4415 40.9697 11.6918 50.409 11.6918C59.8484 11.6918 68.9011 15.4415 75.5758 22.1162ZM56.1609 77.2021V77.166V47.2829H50.409H44.6573V77.2021C44.6573 80.2476 45.8778 83.1585 48.0345 85.297C50.1895 87.434 53.1022 88.6259 56.1291 88.6259C59.1561 88.6259 62.0687 87.434 64.2237 85.297C66.3804 83.1585 67.6009 80.2476 67.6009 77.2021H56.1967H56.1609ZM56.1609 77.2021H56.1291H56.0973C56.0973 77.1847 56.1007 77.1698 56.1055 77.1578C56.1108 77.1443 56.1179 77.1345 56.1238 77.1286C56.1258 77.1266 56.1277 77.1251 56.1291 77.1241C56.1306 77.1251 56.1324 77.1266 56.1344 77.1286C56.1403 77.1345 56.1474 77.1443 56.1527 77.1578C56.1575 77.1698 56.1609 77.1847 56.1609 77.2021Z" fill="black" style="mix-blend-mode:multiply"/>
</svg>
