<svg width="100" height="101" viewBox="0 0 100 101" fill="none" xmlns="http://www.w3.org/2000/svg">
<path fill-rule="evenodd" clip-rule="evenodd" d="M83.2248 13.5928C91.9282 22.2962 96.8177 34.1005 96.8177 46.4088H57.9089V35.3591H42.9089V46.4088L4 46.4088C4 34.1004 8.88949 22.2962 17.5928 13.5928C26.2962 4.88949 38.1005 0 50.4088 0C62.7172 0 74.5215 4.88949 83.2248 13.5928ZM57.9089 85.4217V85.3746V46.4088H50.4088H42.9089V85.4217C42.9089 89.3928 44.5004 93.1884 47.3126 95.977C50.1226 98.7635 53.9205 100.318 57.8675 100.318C61.8145 100.318 65.6124 98.7635 68.4224 95.977C71.2346 93.1884 72.8261 89.3928 72.8261 85.4217H57.9556H57.9089ZM57.9089 85.4217H57.8675H57.8261C57.8261 85.3989 57.8305 85.3795 57.8367 85.3639C57.8437 85.3464 57.8528 85.3335 57.8606 85.3259C57.8632 85.3232 57.8656 85.3213 57.8675 85.32C57.8694 85.3213 57.8718 85.3232 57.8744 85.3259C57.8822 85.3335 57.8913 85.3464 57.8983 85.3639C57.9045 85.3795 57.9089 85.3989 57.9089 85.4217Z" fill="black" style="mix-blend-mode:multiply"/>
</svg>
