<svg width="100" height="100" viewBox="0 0 100 100" fill="none" xmlns="http://www.w3.org/2000/svg">
<path fill-rule="evenodd" clip-rule="evenodd" d="M82.3431 26.5714C82.3431 29.0962 80.2964 31.1429 77.7716 31.1429C75.2469 31.1429 73.2002 29.0962 73.2002 26.5714H82.3431ZM82.3431 26.5714C82.3431 24.0467 80.2964 22 77.7716 22C75.2469 22 73.2002 24.0467 73.2002 26.5714L10 26.5714V78H90V26.5714L82.3431 26.5714ZM50 72.2857C61.0457 72.2857 70 63.3314 70 52.2857C70 41.24 61.0457 32.2857 50 32.2857C38.9543 32.2857 30 41.24 30 52.2857C30 63.3314 38.9543 72.2857 50 72.2857Z" fill="black" style="mix-blend-mode:multiply"/>
</svg>
