<svg width="100" height="100" viewBox="0 0 100 100" fill="none" xmlns="http://www.w3.org/2000/svg">
<path d="M2 50C2 56.3035 2.62078 62.5452 3.82689 68.3688C5.03301 74.1924 6.80083 79.4839 9.02944 83.9411C11.258 88.3983 13.9038 91.934 16.8156 94.3462C19.7274 96.7584 22.8483 98 26 98C29.1517 98 32.2726 96.7584 35.1844 94.3462C36.0343 93.6422 36.8614 92.8424 37.6622 91.952C30.3076 83.7503 25.3333 68.0369 25.3333 50L2 50Z" fill="#FFC0CB"/>
<path d="M73.3333 50H50C50 56.3035 49.3792 62.5452 48.1731 68.3688C46.967 74.1924 45.1992 79.4839 42.9706 83.9411C41.3924 87.0974 39.6051 89.7916 37.6622 91.952C41.117 95.8048 45.097 98 49.3333 98C62.5882 98 73.3333 76.5097 73.3333 50Z" fill="#414DA1"/>
<path d="M25.3333 50C25.3333 68.0369 30.3076 83.7503 37.6622 91.952C39.6051 89.7916 41.3924 87.0974 42.9706 83.9411C45.1992 79.4839 46.967 74.1924 48.1731 68.3688C49.3792 62.5452 50 56.3035 50 50H25.3333Z" fill="#7E3972"/>
<path d="M49.3333 2C36.0785 2 25.3333 23.4903 25.3333 50H50C50 43.6965 50.6208 37.4548 51.8269 31.6312C53.033 25.8076 54.8008 20.5161 57.0294 16.0589C58.4251 13.2675 59.9844 10.8376 61.6702 8.81865C58.0651 4.48933 53.8446 2 49.3333 2Z" fill="#FFC0CB"/>
<path d="M61.6702 8.81865C59.9844 10.8376 58.4251 13.2675 57.0294 16.0589C54.8008 20.5161 53.033 25.8076 51.8269 31.6312C50.6208 37.4548 50 43.6965 50 50H73.3333C73.3333 32.5128 68.6576 17.2097 61.6702 8.81865Z" fill="#7E3972"/>
<path d="M61.6702 8.81865C68.6576 17.2097 73.3333 32.5128 73.3333 50L98 50C98 43.6966 97.3792 37.4548 96.1731 31.6312C94.967 25.8076 93.1992 20.5161 90.9706 16.0589C88.742 11.6017 86.0962 8.06602 83.1844 5.65379C80.2726 3.24156 77.1517 2.00001 74 2C70.8483 2 67.7274 3.24156 64.8156 5.65378C63.7273 6.55533 62.6763 7.61379 61.6702 8.81865Z" fill="#414DA1"/>
</svg>
