<svg width="100" height="100" viewBox="0 0 100 100" fill="none" xmlns="http://www.w3.org/2000/svg">
<path fill-rule="evenodd" clip-rule="evenodd" d="M38.5593 31.0605C39.526 32.0272 40.5882 32.8404 41.7154 33.5C40.5882 34.1596 39.526 34.9728 38.5593 35.9395C34.8192 39.6796 33.3775 44.8478 34.2341 49.6889C30.8671 49.2982 27.6032 47.8115 25.0203 45.2286C18.934 39.1423 18.934 29.2745 25.0203 23.1882C27.5555 20.653 30.7469 19.1738 34.0478 18.7507C33.684 23.1573 35.1879 27.6891 38.5593 31.0605ZM49.5002 42.0724C48.8405 43.1997 48.0273 44.2618 47.0606 45.2286C43.5572 48.7319 38.8009 50.2187 34.2341 49.6889C34.7714 52.7256 36.2132 55.6337 38.5593 57.9798C41.3019 60.7224 44.8124 62.2291 48.3987 62.5H47L47 92.5H52L52 70.4509C52.0019 73.3657 53.1606 76.1606 55.2218 78.2218C57.2847 80.2847 60.0826 81.4436 63 81.4436C65.9174 81.4436 68.7153 80.2847 70.7782 78.2218C72.8411 76.1589 74 73.361 74 70.4436L63 70.4436H52L52 62.5H50.7603C54.3466 62.2291 57.8571 60.7224 60.5997 57.9798C62.9509 55.6286 64.3938 52.7131 64.9284 49.6692C68.2379 49.2502 71.4386 47.77 73.98 45.2286C80.0663 39.1423 80.0663 29.2745 73.98 23.1882C71.4859 20.6941 68.3567 19.222 65.113 18.7721C64.8244 15.2162 63.32 11.7405 60.5997 9.02016C54.5134 2.93389 44.6456 2.93389 38.5593 9.02016C35.8445 11.735 34.3406 15.2023 34.0478 18.7507C38.6712 18.158 43.5096 19.6372 47.0606 23.1882C48.0273 24.155 48.8405 25.2171 49.5002 26.3444C48.5555 27.9587 47.9258 29.7065 47.611 31.4989C45.5604 31.7585 43.5515 32.4255 41.7154 33.5C43.4964 34.5422 45.4399 35.2011 47.4264 35.4766C47.6124 37.7688 48.3037 40.0277 49.5002 42.0724ZM51.5722 35.498C50.1961 35.6744 48.8009 35.6673 47.4264 35.4766C47.3187 34.1502 47.3803 32.8126 47.611 31.4989C48.8637 31.3403 50.1319 31.3337 51.3859 31.4792C51.6207 32.8063 51.6828 34.158 51.5722 35.498ZM57.4436 33.5C58.5708 34.1596 59.633 34.9728 60.5997 35.9395C64.3347 39.6745 65.7776 44.8338 64.9284 49.6692C60.3122 50.2536 55.4846 48.7734 51.9397 45.2286C50.973 44.2618 50.1598 43.1997 49.5002 42.0724C50.6929 40.0341 51.3836 37.7829 51.5722 35.498C53.6144 35.2363 55.6147 34.5702 57.4436 33.5ZM57.4436 33.5C55.5591 32.3972 53.4926 31.7236 51.3859 31.4792C51.0699 29.6937 50.4414 27.9528 49.5002 26.3444C50.1598 25.2171 50.973 24.155 51.9397 23.1882C55.5318 19.5961 60.4412 18.124 65.113 18.7721C65.4701 23.172 63.9656 27.6945 60.5997 31.0605C59.633 32.0272 58.5708 32.8404 57.4436 33.5ZM48.3987 62.5C49.1847 62.5594 49.9743 62.5594 50.7603 62.5H48.3987ZM25 70.4436C25 73.361 26.1589 76.1589 28.2218 78.2218C30.2847 80.2847 33.0826 81.4436 36 81.4436C38.9174 81.4436 41.7153 80.2847 43.7782 78.2218C45.8411 76.1589 47 73.361 47 70.4436L36 70.4436H25Z" fill="black" style="mix-blend-mode:multiply"/>
</svg>
