<svg width="100" height="100" viewBox="0 0 100 100" fill="none" xmlns="http://www.w3.org/2000/svg">
<path fill-rule="evenodd" clip-rule="evenodd" d="M78.3002 29.5C78.3002 31.7091 76.5093 33.5 74.3002 33.5C72.091 33.5 70.3002 31.7091 70.3002 29.5H78.3002ZM78.3002 29.5L85 29.5V74.5H15V29.5L70.3002 29.5C70.3002 27.2909 72.091 25.5 74.3002 25.5C76.5093 25.5 78.3002 27.2909 78.3002 29.5ZM50 69.5C59.665 69.5 67.5 61.665 67.5 52C67.5 42.335 59.665 34.5 50 34.5C40.335 34.5 32.5 42.335 32.5 52C32.5 61.665 40.335 69.5 50 69.5Z" fill="black" style="mix-blend-mode:multiply"/>
</svg>
