<svg width="100" height="100" viewBox="0 0 100 100" fill="none" xmlns="http://www.w3.org/2000/svg">
<path d="M30.5311 79.6416C32.355 80.6947 34.6871 80.0697 35.7402 78.2459C36.7932 76.422 36.1683 74.0898 34.3444 73.0368C32.5205 71.9838 30.1884 72.6087 29.1353 74.4326C28.0823 76.2565 28.7072 78.5886 30.5311 79.6416Z" fill="black" style="mix-blend-mode:multiply"/>
<path fill-rule="evenodd" clip-rule="evenodd" d="M95.9049 59.4399L15.9932 13.3028L3.7059 34.585L31.2574 50.4918C26.9511 51.9134 23.3231 54.8414 21.0636 58.7549L35.0435 66.8262L30.061 75.4562L34.3911 77.9562L39.3736 69.3262L54.0876 77.8213C56.3471 73.9078 57.0688 69.3018 56.1468 64.8617L83.6177 80.722L95.9049 59.4399ZM39.3736 69.3262L42.0177 64.7466L37.6875 62.2466L35.0435 66.8262L37.5756 68.2881L39.3736 69.3262ZM56.1468 64.8617L31.2574 50.4918C31.6628 50.358 32.0742 50.2375 32.4911 50.1308C37.3358 48.8909 42.5177 49.6147 46.897 52.143C51.2763 54.6714 54.4941 58.7972 55.8426 63.6128C55.9586 64.0272 56.06 64.4437 56.1468 64.8617Z" fill="black" style="mix-blend-mode:multiply"/>
</svg>
