<svg width="101" height="100" viewBox="0 0 101 100" fill="none" xmlns="http://www.w3.org/2000/svg">
<path fill-rule="evenodd" clip-rule="evenodd" d="M90.6395 20.7143C90.6395 23.8702 88.0811 26.4286 84.9252 26.4286C81.7693 26.4286 79.2109 23.8702 79.2109 20.7143H90.6395ZM90.6395 20.7143L100.211 20.7143V85H0.210938V20.7143L79.2109 20.7143C79.2109 17.5584 81.7693 15 84.9252 15C88.0811 15 90.6395 17.5584 90.6395 20.7143ZM50.2109 77.8571C64.0181 77.8571 75.2109 66.6643 75.2109 52.8571C75.2109 39.05 64.0181 27.8571 50.2109 27.8571C36.4038 27.8571 25.2109 39.05 25.2109 52.8571C25.2109 66.6643 36.4038 77.8571 50.2109 77.8571Z" fill="black" style="mix-blend-mode:multiply"/>
</svg>
