<svg width="100" height="100" viewBox="0 0 100 100" fill="none" xmlns="http://www.w3.org/2000/svg">
<path fill-rule="evenodd" clip-rule="evenodd" d="M65.0009 18.3589C64.9533 18.5364 64.8983 18.7099 64.8362 18.8792C63.2195 18.0759 61.4993 17.4207 59.6883 16.9354C57.5418 16.3603 55.3867 16.0557 53.2589 16.0007C53.293 15.7517 53.343 15.5022 53.4098 15.2531C54.2674 12.0523 57.5574 10.1528 60.7582 11.0105C63.959 11.8681 65.8585 15.1581 65.0009 18.3589ZM46.2279 70.2689L18.8903 62.9438L26.0078 36.3809C29.3636 23.857 40.8441 15.6798 53.2589 16.0007C52.8556 18.9512 54.7006 21.8107 57.6524 22.6016C60.6757 23.4117 63.7786 21.7619 64.8362 18.8792C76.3155 24.5832 82.5793 37.7566 79.1337 50.6159L72.0162 77.1789L64.1816 75.0796C63.7164 71.1331 60.9079 67.6794 56.8355 66.5882C52.7631 65.497 48.604 67.0837 46.2279 70.2689ZM46.2279 70.2689L64.1816 75.0796C64.3258 76.3028 64.2448 77.5734 63.9066 78.8356C62.4772 84.1703 56.9938 87.3361 51.6591 85.9067C46.3245 84.4773 43.1587 78.9939 44.5881 73.6593C44.9263 72.397 45.4915 71.2562 46.2279 70.2689Z" fill="black"/>
</svg>
