<svg width="100" height="100" viewBox="0 0 100 100" fill="none" xmlns="http://www.w3.org/2000/svg">
<path fill-rule="evenodd" clip-rule="evenodd" d="M64.4671 64.081C72.0091 59.1986 77 50.7111 77 41.0578C77 25.9218 64.7298 13.6516 49.5937 13.6516C34.4577 13.6516 22.1875 25.9218 22.1875 41.0578C22.1875 50.7111 27.1783 59.1986 34.7204 64.081C33.1063 65.1238 31.5944 66.3414 30.2146 67.7212C25.0749 72.8609 22.1875 79.8317 22.1875 87.1003L49.5937 87.1003H77C77 79.8317 74.1125 72.8609 68.9729 67.7212C67.593 66.3414 66.0812 65.1238 64.4671 64.081ZM64.4671 64.081C60.0688 61.2393 54.9109 59.6941 49.5937 59.6941C44.2765 59.6941 39.1186 61.2393 34.7204 64.081C39.0041 66.854 44.1109 68.4641 49.5937 68.4641C55.0765 68.4641 60.1833 66.854 64.4671 64.081Z" fill="black" style="mix-blend-mode:multiply"/>
</svg>
