<svg width="101" height="100" viewBox="0 0 101 100" fill="none" xmlns="http://www.w3.org/2000/svg">
<path d="M50.6459 36.4867L66.5468 64.1415H74.2469C80.5624 64.1415 85.727 69.0899 86.1049 75.3361C86.257 75.2565 86.408 75.1732 86.5579 75.0863C92.2401 71.7921 94.187 64.4963 90.9064 58.7907L67.1459 17.4666C63.8653 11.7609 56.5995 9.80604 50.9172 13.1002C50.636 13.2633 50.3638 13.4361 50.1011 13.6181C55.7692 16.9173 57.7084 24.2036 54.4312 29.9031L50.6459 36.4867Z" fill="#E94136"/>
<path d="M86.1271 76.0708C86.1271 75.8241 86.1196 75.5791 86.1049 75.3361C80.495 78.2747 73.5233 76.275 70.3292 70.7199L66.5468 64.1415L34.7449 64.1415L30.6708 71.2272C27.4678 76.7978 20.4662 78.7931 14.8483 75.8188C14.8466 75.9026 14.8457 75.9866 14.8457 76.0708C14.8457 82.6591 20.1647 88 26.726 88L74.2469 88C80.8081 88 86.1271 82.6591 86.1271 76.0708Z" fill="#E94136"/>
<path d="M50.0828 13.6075C44.4006 10.3134 37.1347 12.2683 33.8541 17.9739L10.0936 59.298C6.813 65.0036 8.75987 72.2994 14.4421 75.5936C14.5766 75.6716 14.7121 75.7467 14.8483 75.8188C14.9819 69.3468 20.2485 64.1415 26.726 64.1415L34.7449 64.1415L50.6459 36.4867L46.5688 29.3958C43.4505 23.9726 45.0551 17.1128 50.1011 13.6181L50.0828 13.6075Z" fill="#E94136"/>
<path d="M26.726 64.1415C20.2485 64.1415 14.9819 69.3468 14.8483 75.8188C20.4662 78.7931 27.4678 76.7978 30.6708 71.2272L34.7449 64.1415L26.726 64.1415Z" fill="#7E3972"/>
<path d="M46.5688 29.3958L50.6459 36.4867L54.4312 29.9031C57.7084 24.2036 55.7692 16.9173 50.1011 13.6181C45.0551 17.1128 43.4505 23.9726 46.5688 29.3958Z" fill="#7E3972"/>
<path d="M86.1049 75.3361C85.727 69.0899 80.5624 64.1415 74.2469 64.1415H66.5468L70.3292 70.7199C73.5233 76.275 80.495 78.2747 86.1049 75.3361Z" fill="#7E3972"/>
</svg>
