<svg width="100" height="100" viewBox="0 0 100 100" fill="none" xmlns="http://www.w3.org/2000/svg">
<path fill-rule="evenodd" clip-rule="evenodd" d="M87.9998 47.1214C87.9998 37.1516 84.0393 27.5902 76.9897 20.5405C69.94 13.4909 60.3786 9.5304 50.4088 9.5304C40.4391 9.5304 30.8777 13.4909 23.828 20.5405C16.7783 27.5902 12.8179 37.1516 12.8179 47.1214L48 47.1214V79C48 80.3261 48.5795 81.5979 49.6109 82.5355C50.6424 83.4732 52.0413 84 53.5 84C54.9587 84 56.3576 83.4732 57.3891 82.5355C58.4205 81.5979 59 80.3261 59 79H53.5H53V47.1214H87.9998ZM53 47.1214H50.4088H48V38H53V47.1214Z" fill="black" style="mix-blend-mode:multiply"/>
</svg>
