<svg width="100" height="100" viewBox="0 0 100 100" fill="none" xmlns="http://www.w3.org/2000/svg">
<path d="M32.449 62.0559L49.8482 91.9378L87.1087 28.1512L12.7671 28.2535L30.222 58.2312L53.0288 47.7602L32.449 62.0559Z" fill="#FFC0CB"/>
<path fill-rule="evenodd" clip-rule="evenodd" d="M71.4964 12.7001C92.0596 24.4342 99.105 50.4224 87.2329 70.7465C75.3607 91.0705 49.0667 98.034 28.5036 86.2999C22.9947 83.1564 18.4559 78.9897 14.9912 74.183L32.449 62.0559L49.8482 91.9378L87.1087 28.1512L12.7671 28.2535C24.6393 7.9295 50.9333 0.965977 71.4964 12.7001ZM30.222 58.2312L53.0288 47.7602L32.449 62.0559L30.222 58.2312ZM30.222 58.2312L12.7671 28.2535C5.55168 40.6057 5.32393 55.0502 10.8717 67.1153L30.222 58.2312Z" fill="#414DA1"/>
</svg>
