<svg width="100" height="100" viewBox="0 0 100 100" fill="none" xmlns="http://www.w3.org/2000/svg">
<path fill-rule="evenodd" clip-rule="evenodd" d="M21.3331 46.4C25.2911 46.4 28.4997 43.1765 28.4997 39.2H33.2779C33.2779 43.1765 36.4865 46.4 40.4445 46.4C44.4026 46.4 47.6112 43.1765 47.6112 39.2H52.3889C52.3889 43.1765 55.5976 46.4 59.5556 46.4C63.5136 46.4 66.7223 43.1765 66.7223 39.2H71.5C71.5 43.1765 74.7086 46.4 78.6667 46.4C82.6247 46.4 85.8333 43.1765 85.8333 39.2L93 39.2V68H7L7 39.2L14.1664 39.2C14.1664 43.1765 17.375 46.4 21.3331 46.4ZM85.8333 39.2H71.5C71.5 35.2235 74.7086 32 78.6667 32C82.6247 32 85.8333 35.2235 85.8333 39.2ZM66.7223 39.2H52.3889C52.3889 35.2235 55.5976 32 59.5556 32C63.5136 32 66.7223 35.2235 66.7223 39.2ZM47.6112 39.2H33.2779C33.2779 35.2235 36.4865 32 40.4445 32C44.4026 32 47.6112 35.2235 47.6112 39.2ZM14.1664 39.2C14.1664 35.2235 17.375 32 21.3331 32C25.2911 32 28.4997 35.2235 28.4997 39.2H14.1664Z" fill="black" style="mix-blend-mode:multiply"/>
</svg>
