<svg width="101" height="100" viewBox="0 0 101 100" fill="none" xmlns="http://www.w3.org/2000/svg">
<path d="M50.5 94C70.1061 94 86 85.8506 86 75.7979C86 70.7502 81.9928 66.1824 75.5206 62.8853C69.1029 66.211 60.2615 68.266 50.5 68.266C40.7385 68.266 31.8971 66.211 25.4794 62.8853C19.0072 66.1824 15 70.7502 15 75.7979C15 85.8506 30.8939 94 50.5 94Z" fill="#414DA1"/>
<path d="M25.4794 36.6147C19.0072 39.9688 15 44.6153 15 49.75C15 54.8847 19.0072 59.5312 25.4794 62.8853C31.8971 59.6159 40.7385 57.5957 50.5 57.5957C60.2615 57.5957 69.1029 59.6159 75.5206 62.8853C81.9928 59.5312 86 54.8847 86 49.75C86 44.6153 81.9928 39.9688 75.5206 36.6147C69.1029 39.8841 60.2615 41.9043 50.5 41.9043C40.7385 41.9043 31.8971 39.8841 25.4794 36.6147Z" fill="#E94136"/>
<path d="M75.5206 62.8853C69.1029 59.6159 60.2615 57.5957 50.5 57.5957C40.7385 57.5957 31.8971 59.6159 25.4794 62.8853C31.8971 66.211 40.7385 68.266 50.5 68.266C60.2615 68.266 69.1029 66.211 75.5206 62.8853Z" fill="#7E3972"/>
<path d="M50.5 5.5C30.8939 5.5 15 13.6494 15 23.7021C15 28.7498 19.0072 33.3176 25.4794 36.6147C31.8971 33.289 40.7385 31.234 50.5 31.234C60.2615 31.234 69.1029 33.289 75.5206 36.6147C81.9928 33.3176 86 28.7498 86 23.7021C86 13.6494 70.1061 5.5 50.5 5.5Z" fill="#FFC0CB"/>
<path d="M50.5 41.9043C60.2615 41.9043 69.1029 39.8841 75.5206 36.6147C69.1029 33.289 60.2615 31.234 50.5 31.234C40.7385 31.234 31.8971 33.289 25.4794 36.6147C31.8971 39.8841 40.7385 41.9043 50.5 41.9043Z" fill="#E7A545"/>
</svg>
